<svg width="44" height="44" viewBox="0 0 44 44" xmlns="http://www.w3.org/2000/svg"><defs><linearGradient x1="0%" y1="-3.75%" x2="97.61%" y2="97.521%" id="a"><stop stop-color="#AAE3FF" offset="0%"/><stop stop-color="#0AF" offset="100%"/></linearGradient></defs><g fill="none" fill-rule="evenodd"><rect fill="#0BADFF" y="7.563" width="44" height="36.438" rx="4"/><rect fill="#D7DBDB" x="7.563" width="33" height="36.438" rx="3"/><path d="M6.482 3.19l27.295 3.352a2.75 2.75 0 0 1 2.395 3.065l-.964 7.847a2.75 2.75 0 0 1-3.065 2.394l-27.295-3.35a2.75 2.75 0 0 1-2.394-3.066l.964-7.847a2.749 2.749 0 0 1 3.064-2.394z" fill="#F2F7F9"/><path fill="#000" style="mix-blend-mode:soft-light" d="M.075 12.5l43.584-2.244V15H1"/><path d="M0 13.063h44V40c0 2.21-1.79 4-4 4H4c-2.21 0-4-1.79-4-4V13.062z" fill="#84B7EB"/><path d="M0 13.063h44V40c0 2.21-1.79 4-4 4H4c-2.21 0-4-1.79-4-4V13.062z" fill="url(#a)"/></g></svg>